# xmcd
#
# Track frame offsets: 
#        150
#        5445
#        18064
#        36799
#        42967
#        58219
#        80102
#        92902
#        106064
#        120480
#        130410
#        148448
#        154142
#        172097
#
# Disc length: 2436 seconds
#
# Revision: 0
# Processed by: cddbd v1.5.2PL0 Copyright (c) Steve Scherf et al.
# Submitted via: ExactAudioCopy v0.95b4
#
DISCID=be09820e
DTITLE=Hope For Agoldensummer - Shhh.... Super Secret Compilation
DYEAR=2007
DGENRE=
TTITLE0=[introduction]
TTITLE1=Crushy D.
TTITLE2=Hallelujah
TTITLE3=Watermelon Heart
TTITLE4=Candy Dots
TTITLE5=Laying Down the Gun
TTITLE6=Champaign and Cocaine
TTITLE7=Tuscon
TTITLE8=Abstract Feeling
TTITLE9=Stars, stars
TTITLE10=Calling My Children Home
TTITLE11=Where Was I?
TTITLE12=Are You That Somebody
TTITLE13=The Swimming Song
EXTD=
EXTT0=
EXTT1=
EXTT2=
EXTT3=
EXTT4=
EXTT5=
EXTT6=
EXTT7=
EXTT8=
EXTT9=
EXTT10=
EXTT11=
EXTT12=
EXTT13=
PLAYORDER=
